<?xml version="1.0" encoding="UTF-8"?>
<svg version="1.1" viewBox="0 0 2048 2048" width="1280" height="1280" xmlns="http://www.w3.org/2000/svg">
<path transform="translate(1135,64)" d="m0 0h9l6 4 4 5 1 2v232h254l11 4 9 9 4 8 2 9v28h572l11 4 6 4 5 4 7 10 3 9 1 15v1275l-1 25-4 11-7 9-7 6-9 4-13 2h-1038l4 5 5 5 7 6 4 4v2l4 2 5 6 17 17 6 5 5 6 7 6 5 6 7 6 5 6 7 6 7 8 74 74 7 6 7 8 7 9 4 9 1 5v10l-3 10-6 10-7 7-7 4-15 3h-669l-11-3-10-6-7-8-5-10-2-10v-214h-217l-18-1-24-4-20-6-21-9-18-10-14-10-15-13-11-11-9-11-10-14-8-14-9-19-7-23-3-18-2-27 1-1189 3-22 5-19 8-20 8-16 12-18 9-11 12-13 10-9 16-12 19-11 21-9 20-6 15-3 21-2h16l26 3 17 4 21 7 20 10 11 7 12 9 11 9 16 16 10 13 9 14 11 21 7 19 5 21 3 16v3h245v-157l5-7 12-5 352-95 130-35zm-522 1678-35 1v87h261l-6-7-8-8-7-8-55-55-6-5-4-4-82-1z" fill="#3362CE"/>
<path transform="translate(384,396)" d="m0 0h243l1 1 1 149v656l-1 109-48 1-7 4-4 8v8l5 7 6 3 47 1h127l945-1 8-3 5-6 1-8-4-8-4-4-5-1-55-1v-146l18-6 16-8 13-9 14-13 10-13 9-14 10-21 7-21 5-24 2-18v-24l-3-24-5-21-8-22-10-20-7-10-11-14-10-10-14-10-17-9-17-5-5-1h-27l-16 4-16 7-11 7-10 8-12 12-12 16-9 16-8 16h-29l-1-99v-343l-1-36-6-12-8-7-10-4-31-1-1-2v-32l1-2h556l12 1 4 2 1 2v1304l-1 4-5 2h-1073l-10-8-355-355v-2l-4-2-6-7-8-7-66-66-11-7-8-3-10-1-10 2-11 6-7 7-6 12-1 3-1 425-1 3-2 1-222-1-18-2-20-5-21-8-15-8-12-8-11-9-12-11-11-14-10-15-8-16-7-21-4-20v-31l4-25 8-24 10-19 9-13 12-13 13-13 12-9 15-9 15-7 15-5 13-3 23-3h17l21 3 21 6 18 8 14 8 12 9 10 9 13 13 11 15 10 18 8 21 4 17 2 13 1 36 4 6 8 4h6l8-5 4-8 1-9-1-319v-794l1-54z" fill="#DEEAFC"/>
<path transform="translate(186,225)" d="m0 0h18l18 2 19 5 17 6 19 10 17 12 13 12 8 8 11 15 8 13 7 16 5 15 4 19 1 9 1 170v910l-2 2-9-10-9-11-13-13-13-10-15-10-19-10-21-8-24-6-17-2h-28l-26 4-24 7-21 9-17 10-14 10-11 9-5 5-11 12-11 14h-1l-1-13v-1054l1-21 4-20 6-18 10-21 10-15 9-10 7-8 15-13 17-11 19-9 21-7 16-3z" fill="#F9A9A6"/>
<path transform="translate(957,965)" d="m0 0h411l6 1h164l6 3v342l-1 1h-647l-2-1v-343l4-2z" fill="#DDEAFC"/>
<path transform="translate(452,1284)" d="m0 0 4 1 15 14 653 653 1 4-2 4-6 2-144 1-525-1-2-6-1-113v-403l1-149 3-5zm161 458-35 1v87h261l-6-7-8-8-7-8-55-55-6-5-4-4-82-1z" fill="#FEE695"/>
<path transform="translate(1113,103)" d="m0 0 9 1 3 10v20l-1 33v32l-1 24-2 13v16l-1 5 1 7-2 8-4 13-6 4-4 12-6 3-9 6-12 12-4 7-2 28-2 39v9l-3 8-5 6h-2l-2 4-7 8-11 10-6 3h-2l-1 5-4 10-2 13-1 25v76l-1 11v336l-2 7 3 5-1 3h-178l-185-1-1-3v-50l1-5 2-1 296-2 4-2 2-22v-14l1-6-1-4 1-2-3-5v-11l-2-21-1-5-8-1h-8v-4l-12 2-14 1h-6l-8-2-15-1h-19l-33-1-176-1-1-4v-49l1-5 2-1 63-1h220l10-2 3-1 2 1 4-22 2-19-2-6-1-5-1-2-3-34-1-3-10-2-1 2-4-1v-4l-7 2-20 1-9-1-17-2-58-1-172-1-1-4v-49l1-5 2-1 63-1h131l58-1h32l16-1v-11l2-12-2-38-3-26-5-4-5 2h-4l-1-2-7-3-33-2-29-1h-193l-22-1-1-14v-42l1-3 21-1h178l67-1 24-1 8-1 3-15 1-18-1-23-1-22-3-6v-2l-16-3-4-2-12-1h-8l-10-2-19-1h-22l-22-1h-162l-17-1-4-3-1-3-1-30v-22l3-9 16-8 15-5 13-4 16-4 14-4 10-2 17-4 14-4 16-4 14-4 30-8 16-4 13-3 9-3 22-6 24-6 14-4 11-3 13-4 14-3 14-4 4-1 13-4 10-2 7-2 25-7 15-4 22-6 22-5z" fill="#4471CC"/>
<path transform="translate(559,1514)" d="m0 0h7l7 4 318 318 4 8-1 6-4 7-7 4-4 1h-287l-33-1-7-3-4-4-1-4-1-317 1-9 6-7zm54 228-35 1v87h261l-6-7-8-8-7-8-55-55-6-5-4-4-82-1z" fill="#3362CF"/>
<path transform="translate(1378,1450)" d="m0 0h302l36 1 9 4 10 9 7 11 3 7v13l-4 10-9 11-10 8-12 2h-279l-188 1h-38l-14-1-10-4-9-7-7-9-4-7-1-4v-13l5-12 7-9 6-5 8-4 5-1z" fill="#A2CAFD"/>
<path transform="translate(1273,463)" d="m0 0h72l17 1v396l-1 74-1 1h-84l-2-1-1-125z" fill="#A2CAFD"/>
<path transform="translate(1154,463)" d="m0 0h87l1 1v394l-1 76-1 1h-84l-2-1-1-416v-54z" fill="#A2CAFD"/>
<path transform="translate(1056,464)" d="m0 0h66v469l-1 1h-65l-1-1v-433z" fill="#A2CAFD"/>
<path transform="translate(1619,879)" d="m0 0h21l13 4 13 7 9 7 7 6 11 14 10 18 6 15 6 23 3 26v19l-4 27-6 20-7 17-9 15-8 10-10 10-10 7-14 7-7 2-18 1-11-1-15-6-12-7-10-9-1-2-1-140-2-9-4-8-5-6-10-8 2-6 9-15 9-11 11-11 14-9 11-5z" fill="#6ADEDF"/>
<path transform="translate(1394,463)" d="m0 0 66 1v469l-1 1h-65l-1-425v-45z" fill="#A2CAFD"/>
<path transform="translate(1834,466)" d="m0 0h10l14 1 7 3 6 7 1 2v9l-6 7-11 6-1 115v495l1 165v35l8 2 5 3 4 6v9l-4 6-5 4-5 2-7 1h-24l-11-2-6-4-4-5-1-10 4-6 5-4 8-3 1-810-9-3-6-5-3-6 1-9 7-8 6-2z" fill="#3462CE"/>
<path transform="translate(1101,338)" d="m0 0h292l9 1 1 3v89l-1 1h-301l-1-1v-92z" fill="#A2CAFD"/>
<path transform="translate(794,1194)" d="m0 0h43l25 1 1 27v63l-1 10-3 3-1 8h2l2 3 1 2h-203l-1-4v-110l1-2z" fill="#4471CC"/>
<path transform="translate(953,1042)" d="m0 0h78l8 3 9 9 3 8v143l-5 10-8 7-5 2-8 1h-64l-11-1-10-6-6-9-1-6v-141l3-8 6-7 7-4z" fill="#3362CE"/>
<path transform="translate(1408,1042)" d="m0 0h77l8 3 8 7 4 10v141l-2 8-6 8-10 5-9 1h-69l-9-3-9-8-3-6-1-6v-74l1-69 4-8 7-6z" fill="#3362CE"/>
<path transform="translate(1256,1042)" d="m0 0h78l7 3 8 7 4 7 1 20v113l-1 15-4 8-8 7-5 2-7 1h-72l-8-3-10-9-3-8v-143l4-10 8-7z" fill="#3362CE"/>
<path transform="translate(1105,1042)" d="m0 0h77l8 3 8 7 4 8v146l-4 8-5 5-8 5-7 1h-72l-9-3-8-7-4-8-1-6 1-141 4-8 7-7z" fill="#3362CE"/>
<path transform="translate(810,1034)" d="m0 0h22l30 1v60h-38l-164-1-1-4v-54l4-1z" fill="#4471CC"/>
<path transform="translate(578,1570)" d="m0 0 4 1 138 138v2h-141l-1-1z" fill="#DBE9FC"/>
<path transform="translate(1199,1562)" d="m0 0h79l9 2 9 5 9 9 5 9 4 10-1 10-4 10-8 10-11 9-9 2h-88l-11-4-9-7-7-7-6-12v-14l4-10 6-9 9-8 10-4z" fill="#A2CAFD"/>
<path transform="translate(785,487)" d="m0 0h69l79 1v35l-1 1h-272v-36z" fill="#A2CAFD"/>
<path transform="translate(792,647)" d="m0 0h69l71 1 1 1v34l-1 1h-272v-36z" fill="#A2CAFD"/>
<path transform="translate(795,807)" d="m0 0h62l75 1 1 1v34l-1 1h-272v-36z" fill="#A2CAFD"/>
<path transform="translate(660,328)" d="m0 0h272l1 1v34l-1 1h-272z" fill="#A2CAFD"/>
<path transform="translate(841,967)" d="m0 0 21 1v35l-1 1h-201v-36z" fill="#A2CAFD"/>
<path transform="translate(660,1128)" d="m0 0h202v35l-1 1h-201z" fill="#A2CAFD"/>
<path transform="translate(1117,1074)" d="m0 0h52l1 1v117l-1 1h-52l-1-1v-117z" fill="#A2CAFD"/>
<path transform="translate(965,1074)" d="m0 0h52l2 1v117l-1 1h-52l-1-1z" fill="#A2CAFD"/>
<path transform="translate(1420,1074)" d="m0 0h52l1 1v117l-1 1h-52l-1-2v-116z" fill="#A2CAFD"/>
<path transform="translate(1268,1074)" d="m0 0h53l1 18v100l-1 1h-53z" fill="#A2CAFD"/>
<path transform="translate(1576,1150)" d="m0 0 19 9 16 5 2 2v145h-37z" fill="#DDE9FC"/>
<path transform="translate(1854,501)" d="m0 0h1l2 810h-2l-1-35-1-165v-495z" fill="#A2CAFD"/>
<path transform="translate(925,1707)" d="m0 0 7 2 218-1 123 1h732l-3 2h-1073z" fill="#A2CAFD"/>
<path transform="translate(446,1288)" d="m0 0 1 3-1 149v403l1 113 1 6h-2l-1-2-1-80-1-64v-231l-1-37v-117l1-36 1-19 1-86z" fill="#4471CC"/>
<path transform="translate(1124,1952)" d="m0 0 2 2-1 6-8 4-5 1h-209l-47-1-408-1v-1h530l139-1 6-2z" fill="#4471CC"/>
<path transform="translate(547,1524)" d="m0 0h1l2 18 1 10-1 117v186l-2-1-1-4-1-317z" fill="#4471CC"/>
<path transform="translate(352,1064)" d="m0 0h1v386h-4l1-2 1-5v-279z" fill="#4471CC"/>
<path transform="translate(551,1856)" d="m0 0 4 1 6 2 86 1h236l-4 2h-287l-33-1-7-3z" fill="#4471CC"/>
<path transform="translate(911,1739)" d="m0 0 4 2 78 78 6 5 6 7 6 5 6 7 6 5 6 7 7 6 5 6 6 5 6 7 7 6v2l4 2v2l4 2v2l4 2 5 6 7 6 5 6 7 6 5 6 6 5 7 8 8 8-1 2-210-210z" fill="#4471CC"/>
<path transform="translate(629,219)" d="m0 0 2 1v3h2v34l-1 10v19l1 5-1 8 1 5-1 35v8l-1 4 1 7-3 3z" fill="#4370CC"/>
<path transform="translate(628,363)" d="m0 0 2 3v2l-8 1-82-1-7-1-65-1v-1h160z" fill="#618DDB"/>
<path transform="translate(904,1688)" d="m0 0 7 6 16 16-5-2-6-5-7-8-5-5z" fill="#4471CC"/>
</svg>
