<?xml version="1.0" encoding="UTF-8"?>
<svg version="1.1" viewBox="0 0 2048 2048" width="1280" height="1280" xmlns="http://www.w3.org/2000/svg">
<path transform="translate(52)" d="m0 0h1944l15 6 12 8 8 7 9 13 5 11 3 9v90l-6 16-6 10-8 10-12 9-14 6-15 3-669 1-6 21-7 17-10 18-8 11-11 13-10 10-17 13-17 10-16 7-15 5-18 4-20 2-39 1-1 131h109l23 1v197l-165 1-33 1v64l-64 1-2-1v-65h-192l-6-1v-197l1-1h131l-1-131-45-1-26-4-17-5-18-8-16-9-16-12-12-11-12-13-11-16-8-14-8-20-5-18v-2h-671l-14-3-10-4-10-7-7-6-8-10-8-17-2-7v-91l6-16 9-14 9-9 13-8z"/>
<path transform="translate(1055,1274)" d="m0 0h2l1 69 2 27 3 19 4 15 5 13 6 11 9 11 10 9 19 14 14 11 13 12 9 10 10 14 8 15 8 21 6 24 4 25 1 13 13-4 16-6 22-11 15-10 12-9 12-11 8-7 7-8 6-8 9-15 16-26 9-16 3 1 18 53 9 27 8 29 7 30 6 37 2 18 1 15v49l-2 23-5 30-7 28-9 26-11 24-10 19-16 24-12 14-11 12-20 20-11 9-12 10-19 13-19 12-22 12-28 12-22 8-30 8-36 7-14 2h-78l-26-4-28-5-30-8-26-9-25-11-20-10-23-14-20-14-16-13-11-9-30-30-9-11-12-15-14-21-12-22-12-28-8-25-6-26-4-28-2-29v-12l1-22 4-33 5-27 8-32 12-36 8-21 12-31 9-23 2-6h2l19 38 10 19 6 11 9 10 6 7 8 7 13 10 16 10 24 12-5-21-3-20-1-11v-26l2-19 5-25 6-20 11-26 11-19 12-17 13-16 5-6h2l2-4 11-11 8-7 16-13 17-12 19-12 28-15 19-8z" fill="#FE846E"/>
<path transform="translate(1055,1274)" d="m0 0h2l1 69 2 27 3 19 4 15 5 13 6 11 9 11 10 9 19 14 14 11 13 12 9 10 10 14 8 15 8 21 6 24 4 25 1 13 13-4 16-6 22-11 15-10 12-9 12-11 8-7 7-8 6-8 9-15 16-26 9-16 3 1 18 53 9 27 8 29 7 30 6 37 2 18 1 15v49l-2 23-5 30-7 28-9 26-11 24-10 19-16 24-12 14-11 12-20 20-11 9-12 10-19 13-19 12-22 12-28 12-22 8-30 8-36 7-14 2h-78l-26-4-28-5-30-8-26-9-25-11-20-10-23-14-20-14-16-13-11-9-30-30-9-11-12-15-14-21-12-22-12-28-8-25-6-26-4-28-2-29v-12l1-22 4-33 5-27 8-32 12-36 8-21 12-31 9-23 2-6h2l19 38 10 19 6 11 9 10 6 7 8 7 13 10 16 10 24 12-5-21-3-20-1-11v-26l2-19 5-25 6-20 11-26 11-19 12-17 13-16 5-6h2l2-4 11-11 8-7 16-13 17-12 19-12 28-15 19-8zm-65 100-15 10-16 12-12 11-12 12-10 13-12 18-10 19-5 15-5 26-1 10v27l2 18 5 22 5 16 8 18 8 16 9 17 9 19 10 19 4 8-16-3-42-10-35-9-30-10-25-11-22-11-18-11-18-12-7-4-5 18-5 25-3 25v34l4 32 6 26 6 19 8 20 11 23 7 11 12 16 11 12 7 8 8 8 8 7 13 11 18 13 19 12 27 14 19 8 27 9 25 6 18 3 16 2 15 1h44l28-3 26-5 31-9 20-8 25-12 21-13 14-10 14-11 12-11 18-18 13-17 10-16 12-23 8-20 7-25 4-21 3-28v-37l-3-31-4-26-3-17-4-1-18 12-15 9-22 12-24 11-24 9-28 8-47 11-6 1v-58l-2-31-4-25-4-15-6-15-7-11-9-10-10-9-18-13-11-8-15-14-12-14-10-16-8-15-8-22-3-12-4-30z"/>
<path transform="translate(66,67)" d="m0 0h1915v64h-1915z" fill="#AAB5BD"/>
<path transform="translate(230,1182)" d="m0 0 4 4 117 234 7 19 4 17 1 7v36l-3 18-5 16-8 18-8 12-8 10-9 10-12 10-13 8-16 8-20 6-16 3h-29l-21-4-16-6-16-8-13-9-12-11-9-9-11-16-9-17-6-18-3-14-1-8v-31l3-20 5-16 9-21 109-218z"/>
<path transform="translate(1816,1182)" d="m0 0 4 4 11 23 105 210 8 21 3 14 2 18v21l-3 22-6 20-8 16-6 10-10 13-14 14-14 10-17 9-17 6-17 4-7 1h-29l-20-4-19-7-15-8-14-10-13-12-9-11-10-15-8-17-6-20-2-12-1-11v-19l2-17 4-17 6-16 10-21 9-17 11-23 9-17 11-23 9-17 10-21 10-19 9-19 24-48z"/>
<path transform="translate(760 1e3)" d="m0 0 6 2 44 22 23 14 19 14 13 11 10 9 4 3v2h2v2l4 2v2h2l7 8 12 14 13 18 14 24 10 22 7 21 5 23 3 26v11l-1 1h-65l-4-26-5-20-6-17-10-21-10-16-10-13-14-15-15-13-4-1-11 26-10 21-10 19-15 29-8 15-14 31-10 28-5 19-3 20v20l3 17 5 15 8 16 9 12 9 10 11 11 6 5-4 6-9 12-10 13-11 14-5 7-4-2-13-12-8-7-12-13-12-16-9-15-8-16-6-16-5-22-2-17v-20l2-20 4-22 7-25 10-27 11-25 18-36 11-20 9-16 10-21 8-22 6-23 2-14z"/>
<path transform="translate(1285 1e3)" d="m0 0h3l1 53 4 28 6 26 8 26 14 37 17 50 8 28 6 26 4 25 2 21v33l-4 29-5 20-7 20-9 19-10 17-8 11-5-3-16-12-21-16-11-8 5-9 8-14 7-16 5-17 3-18 1-11v-21l-3-27-6-29-9-31-12-36-17-48-9-27-4-15-4 2-11 9-8 8-7 8-13 17-12 21-8 19-6 19-3 15-3 21-1 1h-65v-15l3-25 6-25 7-20 12-25 11-18 11-15 8-10 9-10 11-12 14-13 11-9 19-14 21-13 27-14 24-12z"/>
<path transform="translate(799,198)" d="m0 0h450l-1 5-8 15-9 12-13 13-16 10-14 6-17 4-11 1h-270l-20-2-16-5-14-7-11-8-11-10-11-15-8-16z" fill="#FAFAFA"/>
<path transform="translate(859,529)" d="m0 0h330v64l-1 1h-329z" fill="#FCFBFB"/>
<path transform="translate(229,1331)" d="m0 0h3l17 33 41 82 5 13 2 10v25l-3 14-7 14-9 11-9 8-14 7-10 3-6 1h-17l-13-3-14-7-11-9-9-11-7-15-3-16v-19l3-15 5-12 9-19 9-17 9-19 9-17 9-19 9-17z" fill="#6BD4F6"/>
<path transform="translate(1816,1331)" d="m0 0 3 1 9 20 10 19 37 74 6 16 2 12v18l-2 12-6 15-8 11-5 6-11 8-10 5-16 4h-17l-16-4-16-9-10-10-7-10-5-11-3-13v-26l4-16 11-23 49-98z" fill="#6BD4F6"/>
<path transform="translate(991,331)" d="m0 0h65v130l-64 1-1-1z" fill="#AAB4BC"/>
<path transform="translate(1311,488)" d="m0 0 17 2 36 7 15 4-1 9-14 54-1 2-18-4-42-8-1-5 8-56z"/>
<path transform="translate(233,919)" d="m0 0 9 2 47 15 7 3 1 2-12 36-6 22-9-1-55-13-1-3 10-37 8-25z"/>
<path transform="translate(292,792)" d="m0 0 11 6 28 16 16 10v4l-14 26-9 17-5 10-6-2-22-10-16-8-14-6-2-3 13-26 13-23 6-10z"/>
<path transform="translate(202,1054)" d="m0 0h9l55 6 2 4-4 59h-66v-16l3-51z"/>
<path transform="translate(1755,793)" d="m0 0 3 1 14 25 12 23 5 10-1 3-26 12-23 10-8 4-3-1-18-36-9-16v-4l17-9 20-12z"/>
<path transform="translate(1837,1054)" d="m0 0h9l1 5 2 30 1 33-1 1h-65l-1-4-3-56 1-2 21-3z"/>
<path transform="translate(730,489)" d="m0 0h7l8 57v8l-1 1-30 5-29 6-3-9-7-26-7-28 2-2 36-8z"/>
<path transform="translate(991,1057)" d="m0 0h65l1 1v64l-1 1h-65z"/>
<path transform="translate(991,925)" d="m0 0h65l1 1v64l-2 1h-64z"/>
<path transform="translate(1568,590)" d="m0 0 4 1 17 12 14 11 14 12 6 5-1 4-9 10-9 11-12 13-9 11-3 1-14-11-15-12-19-14 2-5 13-18 8-12 11-16z"/>
<path transform="translate(477,589)" d="m0 0 3 1 7 11 13 18 13 19 3 6-28 21-16 13-4 3-4-2-12-14-13-15-11-12-4-5 1-3 14-11 13-11 19-14z"/>
<path transform="translate(1446,524)" d="m0 0 10 3 25 11 26 13 2 4-9 16-7 14-12 22-2 4-5-2-29-14-22-9 1-7 17-44 4-10z"/>
<path transform="translate(1812,918)" d="m0 0h3l8 24 9 32 1 10-19 5-41 10h-4l-11-40-5-16v-4l25-9z"/>
<path transform="translate(599,524)" d="m0 0 4 1 17 45 5 13-1 3-34 15-19 10-5-5-13-25-10-19-4-7v-3l34-17z"/>
<path transform="translate(991,793)" d="m0 0h65l1 1v64l-5 1h-60l-1-1z"/>
<path transform="translate(373,681)" d="m0 0 4 2 13 12 11 11 8 7 12 12v4h-2l-2 4-12 13-11 14-11 13-7-4-21-16-19-14-5-4 1-4 9-11 10-13 3-4h2l2-4 9-10z"/>
<path transform="translate(1673,682)" d="m0 0 7 6 9 10 12 14 13 17 3 4-2 4-11 8-21 16-16 12-4-2-14-17-9-11-13-14-1-4 15-13 8-8 8-7z"/>
</svg>
