<?xml version="1.0" encoding="UTF-8"?>
<svg version="1.1" viewBox="0 0 2048 2048" width="1280" height="1280" xmlns="http://www.w3.org/2000/svg">
<path transform="translate(921,64)" d="m0 0h206l15 2 15 5 14 7 14 11 8 8 10 14 8 17 4 17 1 14 1 121 38 11 41 14 34 14 24 11 21 10 22 12 14 8 4 1 66-66 7-8h2l2-4h2l1-3 8-7 12-9 16-8 13-4 12-2h22l16 3 16 6 13 8 10 8 7 6 4 4v2l4 2v2l4 2 6 7 92 92 6 5 6 7 15 15 9 13 7 14 4 14 2 11v20l-4 19-8 18-9 13-12 13-77 77h-2v5l13 23 14 27 14 30 13 32 10 28 9 28 7 25 1 2 127 1 15 2 18 6 14 8 13 11 10 11 8 13 7 16 3 14 1 11v194l-1 17-5 19-8 16-8 11-9 10-12 9-10 6-16 6-14 3-15 1h-119l-2 10-12 40-10 29-14 34-9 20-11 23-10 19-12 21 1 4 88 88 10 14 8 17 4 15 1 7v19l-3 16-6 16-6 11-10 13-141 141-12 9-17 9-13 4-18 3h-14l-17-3-17-6-14-8-14-12-82-82-5 1-29 16-36 18-30 13-31 12-37 12-29 8h-2v121l-1 15-5 19-8 16-8 11-10 11-14 10-14 7-17 5-6 1-16 1h-189l-21-2-16-5-15-8-14-11-10-11-9-14-7-16-4-20-1-129-16-5-33-10-34-12-27-11-33-15-20-10-23-13-12-6-5 6-82 82-16 11-15 7-15 4-12 2h-15l-17-3-15-5-16-9-11-9-142-142-8-11-9-17-5-17-1-7v-22l3-15 6-16 7-12 9-11 87-87-1-4-13-24-10-19-15-31-14-34-11-30-9-28-7-26v-3h-121l-21-2-16-5-15-8-9-7-10-9-10-13-8-15-5-16-2-13v-211l4-19 6-14 9-14 9-10 7-7 13-9 15-7 15-4 10-1 129-1 1-7 11-37 11-32 11-28 12-27 10-21 10-19 13-23 1-4-87-87-8-10-8-14-5-12-3-11-1-7v-22l3-15 5-14 8-14 8-10 7-7 6-7 4-4h2l2-4 6-5 6-7 6-5 6-7 6-5 6-7 6-5 6-7 6-5 6-7 6-5 6-7 6-5 6-7 6-5 6-7 4-4h2l2-4h2l2-4h2l2-4h2l2-4 8-7 14-10 15-7 16-4 7-1h22l16 3 16 6 16 10 13 12 80 80 6-2 23-13 29-15 24-11 37-15 34-12 35-10 10-2 1-132 4-19 6-14 9-14 11-12 9-8 13-8 12-5 15-4zm-320 512-10 4-9 8-5 10-1 5v10l4 11 5 7 9 6 10 3 13-1 10-5 7-7 5-10 1-4v-10l-4-11-7-9-11-6-4-1zm416 0-10 4-9 8-5 10-1 4v11l4 11 5 7 9 6 10 3 13-1 10-5 7-7 5-10 1-4v-10l-4-11-7-9-11-6-4-1zm416 0-10 4-9 8-5 10-1 5v10l4 11 5 7 9 6 10 3h8l10-3 8-6 6-7 4-11v-10l-4-11-7-9-9-5-6-2zm-410 226-9 15-14 25-14 24-13 23-12 21-15 26-96 168-14 24-14 25-14 24-3 6v5l60 120 10 19 8 16 1 1h107l1-1v-101l-16-8-12-8-7-7h-2l-2-4-7-8-8-14-6-15-3-15v-22l3-15 5-14 9-16 11-13 12-10 16-9 15-5 11-2h25l15 3 13 5 16 9 10 9h2l2 4 7 8 9 15 6 17 3 16v15l-2 15-6 18-9 16-13 15-12 9-21 11v102h107l3-3 69-138 8-15-1-7-14-25-10-17-13-23-30-52-14-25-14-24-112-196-10-17zm-390 158-10 4-9 8-5 10-1 4v11l4 11 5 7 9 6 10 3 13-1 10-5 7-7 5-10 1-4v-10l-4-11-7-9-11-6-4-1zm768 0-10 4-9 8-5 10-1 5v10l4 11 5 7 9 6 10 3h8l10-3 8-6 6-7 4-11v-10l-4-11-7-9-9-5-6-2zm-513 576-3 8-44 153-1 6 33 9 10 5 5 5 5 8 2 9 1 154 3 9 6 9 7 5 8 3 6 1h196l12-3 8-6 6-7 3-9 1-6 1-154 4-9 6-8 9-5 13-4 20-5 2-1-1-8-16-56-20-69-9-32-1-2z" fill="#9AC6FD"/>
<path transform="translate(921,64)" d="m0 0h206l15 2 15 5 14 7 14 11 8 8 10 14 8 17 4 17 1 14 1 121 38 11 41 14 34 14 24 11 21 10 22 12 14 8 4 1 66-66 7-8h2l2-4h2l1-3 8-7 12-9 16-8 13-4 12-2h22l16 3 16 6 13 8 10 8 7 6 4 4v2l4 2v2l4 2 6 7 92 92 6 5 6 7 15 15 9 13 7 14 4 14 2 11v20l-4 19-8 18-9 13-12 13-77 77h-2v5l13 23 14 27 14 30 13 32 10 28 9 28 7 25 1 2 127 1 15 2 18 6 14 8 13 11 10 11 8 13 7 16 3 14 1 11v194l-1 17-5 19-8 16-8 11-9 10-12 9-10 6-16 6-14 3-15 1h-119l-2 10-12 40-10 29-14 34-9 20-11 23-10 19-12 21 1 4 88 88 10 14 8 17 4 15 1 7v19l-3 16-6 16-6 11-10 13-141 141-12 9-17 9-13 4-18 3h-14l-17-3-17-6-14-8-14-12-82-82-5 1-29 16-36 18-30 13-31 12-37 12-29 8h-2v121l-1 15-5 19-8 16-8 11-10 11-14 10-14 7-17 5-6 1-16 1h-189l-21-2-16-5-15-8-14-11-10-11-9-14-7-16-4-20-1-129-16-5-33-10-34-12-27-11-33-15-20-10-23-13-12-6-5 6-82 82-16 11-15 7-15 4-12 2h-15l-17-3-15-5-16-9-11-9-142-142-8-11-9-17-5-17-1-7v-22l3-15 6-16 7-12 9-11 87-87-1-4-13-24-10-19-15-31-14-34-11-30-9-28-7-26v-3h-121l-21-2-16-5-15-8-9-7-10-9-10-13-8-15-5-16-2-13v-211l4-19 6-14 9-14 9-10 7-7 13-9 15-7 15-4 10-1 129-1 1-7 11-37 11-32 11-28 12-27 10-21 10-19 13-23 1-4-87-87-8-10-8-14-5-12-3-11-1-7v-22l3-15 5-14 8-14 8-10 7-7 6-7 4-4h2l2-4 6-5 6-7 6-5 6-7 6-5 6-7 6-5 6-7 6-5 6-7 6-5 6-7 6-5 6-7 6-5 6-7 4-4h2l2-4h2l2-4h2l2-4h2l2-4 8-7 14-10 15-7 16-4 7-1h22l16 3 16 6 16 10 13 12 80 80 6-2 23-13 29-15 24-11 37-15 34-12 35-10 10-2 1-132 4-19 6-14 9-14 11-12 9-8 13-8 12-5 15-4zm15 63-15 1-8 3-10 8-6 10-1 5-1 157-3 9-6 8-9 6-15 5-32 8-35 11-25 9-27 11-26 12-24 12-23 13-22 13-10 5-4 1h-11l-12-6-10-9-95-95-11-8-5-2-11-1-10 3-6 3-11 9-35 35v2h-2l-7 8-3 2v2h-2v2h-2v2h-2v2h-2v2h-2v2h-2v2h-2v2h-2v2h-2v2h-2v2h-2v2h-2v2h-2v2h-2v2h-2v2h-2l-4 4v2h-2v2h-2v2h-2v2h-2v2l-4 2-18 18-7 8-13 13-5 10-1 3v12l4 9 6 8 101 101 7 10 3 7v13l-4 10-10 17-8 13-14 26-14 28-13 31-11 29-9 28-10 37-6 21-6 10-7 6-6 3-6 1-156 1-9 3-10 8-6 10-1 5-1 63 1 137 2 11 6 9 10 7 12 3 155 1 9 4 8 7 6 12 8 29 9 32 11 33 14 35 16 34 12 23 11 19 13 22 4 10v13l-6 11-9 10-57 57v2h-2l-7 8-21 21-8 7-8 11-3 9v11l7 14 119 119 7 8 14 13 8 5 5 2 11 1 12-4 10-8 15-14 49-49v-2l4-2v-2l4-2 12-12v-2l3-1 5-6 8-7 7-6 9-4 9-1 11 4 15 8 24 14 27 14 19 9 28 12 22 9 3-1 20-69 15-52 6-22-1-3-24-1-9-3-7-4-7-8-3-7-1-7v-132l2-10 5-9 8-6 10-4 17-2-1-5-69-138-4-11v-10l5-14 240-420 14-24 8-9 11-6-2-2-20-6-17-8-11-8-10-9-8-9-9-14-4-1-33 9-27 9-24 10-22 11-25 15-17 12-16 13-10 9-12 11-7 8-9 10-10 13-14 21-13 24-10 25-7 25-5 27 3 3 17 9 13 10 10 11 9 15 6 14 3 11 1 7v21l-2 11-5 16-6 12-9 13-13 13-18 11-15 6-13 3-16 1-21-3-17-6-15-9-13-11-9-10-9-16-5-12-3-12-1-7v-18l3-17 4-12 7-14 13-16 9-8 16-10 12-6 7-35 6-24 10-29 8-18 8-16 8-15 11-17 12-16 10-13 14-15 18-18 11-9 15-12 24-16 10-6v-2h-82l-3 4-7 14-8 11-9 10-14 10-15 8-17 5-7 1h-21l-15-3-18-7-14-9-10-8-10-11-10-17-7-21-1-6v-25l3-15 6-16 9-14 6-7v-2l4-2v-2l4-2 13-10 17-8 9-3 11-2h25l17 4 12 5 11 6 12 9 11 12 10 16 6 11h234l3-5 6-12 10-13 6-7 11-9 13-8 16-6 13-3h24l18 4 16 7 14 9 10 9 10 13 9 16 3 5h234l9-17 10-13 6-7 14-11 15-8 15-5 12-2h21l18 4 12 5 13 7 10 8 10 10 10 15 6 13 4 14 1 5v26l-5 21-8 16-7 10-11 12-12 9-15 8-15 5-10 2h-21l-15-3-16-6-11-6-12-9-9-9-10-14-8-15-1-1h-82v3l16 9 20 14 14 11 14 12 21 21 7 8 11 14 12 17 11 17 13 24 10 23 9 25 7 27 4 21 3 15 22 12 12 9 11 12 8 13 6 13 4 14 1 6v23l-5 21-8 17-7 10-9 10-8 7-14 9-17 7-13 3-8 1h-10l-19-3-16-6-13-7-13-10-9-9-9-14-6-12-5-17-1-7v-20l4-20 6-15 8-12 11-13 13-10 14-8 5-3-1-14-6-26-9-27-12-25-8-14-13-19-11-13-9-11-16-16-11-9-9-8-18-13-17-11-22-12-25-12-30-11-24-7-20-5-4 2-6 10-8 10-5 6-14 11-15 8-19 6-11 2 1 3 12 5 7 8 8 13 14 25 14 24 10 18 13 23 12 21 15 26 112 196 15 26 32 56 11 19 4 10v12l-5 13-8 16-9 19-10 19-10 21-10 19-12 24-8 17-2 3v3l20 3 10 5 7 7 4 8 1 4v139l-3 9-7 9-9 6-8 2-24 1v7l16 55 22 77 3 7 9-2 32-13 24-11 26-13 21-12 20-12 11-5 8-1 13 4 12 9 101 101 8 5 12 3 7-1 10-4 8-6 137-137 6-12 1-4v-11l-6-12-12-13-94-94-6-9-3-7v-11l4-11 6-11 13-22 12-22 8-15 15-33 11-28 10-28 9-30 10-38 4-9 6-8 10-5 4-1 150-1 13-2 8-4 6-5 6-12 1-6v-201l-4-11-6-7-9-6-7-2-153-1-10-2-10-6-6-8-6-18-9-34-11-35-11-30-12-28-14-30-14-26-17-28-6-13-1-3v-12l5-11 11-12 32-32 7-6 5-5v-2l4-2 42-42 11-14 4-10v-11l-4-10-12-14-126-126-12-9-12-3-12 2-8 4-11 9-16 16-7 8-13 13-8 7-22 22-7 8-16 16-8 7-10 7-6 2h-12l-16-8-22-13-22-12-23-12-39-17-26-10-33-11-33-9-25-7-8-4-7-6-4-7-2-13-1-151-4-11-6-7-9-6-8-2-95-1zm-335 449-10 4-9 8-5 10-1 5v10l4 11 5 7 9 6 10 3 13-1 10-5 7-7 5-10 1-4v-10l-4-11-7-9-11-6-4-1zm416 0-10 4-9 8-5 10-1 4v11l4 11 5 7 9 6 10 3 13-1 10-5 7-7 5-10 1-4v-10l-4-11-7-9-11-6-4-1zm416 0-10 4-9 8-5 10-1 5v10l4 11 5 7 9 6 10 3h8l10-3 8-6 6-7 4-11v-10l-4-11-7-9-9-5-6-2zm-410 226-9 15-14 25-14 24-13 23-12 21-15 26-96 168-14 24-14 25-14 24-3 6v5l60 120 10 19 8 16 1 1h107l1-1v-101l-16-8-12-8-7-7h-2l-2-4-7-8-8-14-6-15-3-15v-22l3-15 5-14 9-16 11-13 12-10 16-9 15-5 11-2h25l15 3 13 5 16 9 10 9h2l2 4 7 8 9 15 6 17 3 16v15l-2 15-6 18-9 16-13 15-12 9-21 11v102h107l3-3 69-138 8-15-1-7-14-25-10-17-13-23-30-52-14-25-14-24-112-196-10-17zm-390 158-10 4-9 8-5 10-1 4v11l4 11 5 7 9 6 10 3 13-1 10-5 7-7 5-10 1-4v-10l-4-11-7-9-11-6-4-1zm768 0-10 4-9 8-5 10-1 5v10l4 11 5 7 9 6 10 3h8l10-3 8-6 6-7 4-11v-10l-4-11-7-9-9-5-6-2zm-513 576-3 8-44 153-1 6 33 9 10 5 5 5 5 8 2 9 1 154 3 9 6 9 7 5 8 3 6 1h196l12-3 8-6 6-7 3-9 1-6 1-154 4-9 6-8 9-5 13-4 20-5 2-1-1-8-16-56-20-69-9-32-1-2z" fill="#1C81CE"/>
<path transform="translate(833,1408)" d="m0 0h382l1 1v62l-1 1h-382l-1-1v-62z" fill="#9AC6FD"/>
<path transform="translate(1020,1120)" d="m0 0h10l8 3 9 6 6 8 3 10v11l-4 10-8 9-11 6-4 1h-10l-11-4-10-9-5-9-1-4v-11l3-9 4-6 9-8 7-3z" fill="#9AC6FD"/>
</svg>
